<?xml version="1.0" encoding="UTF-8"?>
<svg id="Capa_1" xmlns="http://www.w3.org/2000/svg" version="1.1" viewBox="0 0 546.48 436.32">
  <!-- Generator: Adobe Illustrator 29.3.1, SVG Export Plug-In . SVG Version: 2.1.0 Build 151)  -->
  <path d="M62.22,50.34l418.33-.32c5.19,1.05,11.26.69,15.43,4.54l-208.27,183.5c-9.88,6.81-19.1,6.81-28.97,0C192.56,176.29,120.42,120.48,54.44,58.57c-.87-.81-4.18-3.54-3.5-4.52l11.28-3.72Z"/>
  <path d="M219.98,232.17l2.28.36c18.9,16.75,30.87,34.11,59.2,30.27,16.34-2.21,30.63-20.24,42.74-30.27h2.96s168.83,149.03,168.83,149.03l-5.93,3.04c-141.45,3.42-283.48.45-425.14,1.5-2.33-.15-14.42-2.6-14.43-4.54l169.51-149.39Z"/>
  <path d="M205.3,219.04L34.97,368.04c-4.7-5.25-5.89-12.64-6.54-19.44V86.52c-.08-2.96,3.64-18.45,6.54-18.45,2.07,2.7,5.01,4.32,7.51,6.47,49.24,42.48,98.38,85.64,146.85,129,1.58,1.42,16.58,14.57,15.97,15.5Z"/>
  <path d="M511.48,68.08c2.95-.03,6.94,16.38,6.54,19.44v263.08c.25,2.88-4.33,17.46-6.54,17.45l-169.25-149.62,169.25-150.35Z"/>
</svg>